<?xml version="1.0" encoding="utf-8"?>
<!-- Generator: Adobe Illustrator 24.3.0, SVG Export Plug-In . SVG Version: 6.00 Build 0)  -->
<svg version="1.1" id="Capa_1" xmlns="http://www.w3.org/2000/svg" xmlns:xlink="http://www.w3.org/1999/xlink" x="0px" y="0px"
	 viewBox="0 0 204 195.6" style="enable-background:new 0 0 204 195.6;" xml:space="preserve">
<style type="text/css">
	.st0{fill:#E30613;}
	.st1{clip-path:url(#SVGID_2_);}
	.st2{clip-path:url(#SVGID_4_);fill:#E30613;}
	.st3{clip-path:url(#SVGID_6_);}
	.st4{clip-path:url(#SVGID_8_);fill-rule:evenodd;clip-rule:evenodd;}
	.st5{clip-path:url(#SVGID_10_);fill-rule:evenodd;clip-rule:evenodd;}
	.st6{clip-path:url(#SVGID_12_);}
	.st7{clip-path:url(#SVGID_14_);}
	.st8{clip-path:url(#SVGID_16_);}
</style>
<polygon class="st0" points="126.2,53.5 66,142.8 37.2,142.8 103.5,45.5 126.5,45.5 "/>
<g>
	<g>
		<defs>
			<rect id="SVGID_1_" x="-197" y="-42.9" width="595.3" height="841.9"/>
		</defs>
		<clipPath id="SVGID_2_">
			<use xlink:href="#SVGID_1_"  style="overflow:visible;"/>
		</clipPath>
		<path class="st1" d="M103.7,142.7c-1.8-0.1-3.4-0.2-5.2-0.5c-39.1-5.5-66.5-41.7-61-80.8c5.5-39.1,41.6-66.3,80.7-60.8
			s66.3,41.6,60.8,80.7c-3.7,26.5-21.6,47.6-44.9,56.7v-27c12.9-8.4,21.5-23.1,21.5-39.7c0-26.2-21.2-47.4-47.4-47.4
			S60.9,45.1,60.9,71.3c0,24.6,18.8,44.9,42.9,47.2L103.7,142.7"/>
	</g>
	<g>
		<defs>
			<rect id="SVGID_3_" x="-197" y="-42.9" width="595.3" height="841.9"/>
		</defs>
		<clipPath id="SVGID_4_">
			<use xlink:href="#SVGID_3_"  style="overflow:visible;"/>
		</clipPath>
		<rect x="103.7" y="45.5" class="st2" width="24.3" height="97.1"/>
	</g>
	<g>
		<defs>
			<rect id="SVGID_5_" x="-197" y="-42.9" width="595.3" height="841.9"/>
		</defs>
		<clipPath id="SVGID_6_">
			<use xlink:href="#SVGID_5_"  style="overflow:visible;"/>
		</clipPath>
		<polygon class="st3" points="38.5,195.6 47.4,195.6 47.4,177.8 61.3,195.6 69.1,195.6 69.1,163.1 60.2,163.1 60.2,180.3 
			46.9,163.1 38.5,163.1 		"/>
	</g>
	<g>
		<defs>
			<rect id="SVGID_7_" x="-197" y="-42.9" width="595.3" height="841.9"/>
		</defs>
		<clipPath id="SVGID_8_">
			<use xlink:href="#SVGID_7_"  style="overflow:visible;"/>
		</clipPath>
		<path class="st4" d="M83.5,187.6v-16.5h3.7c2.7,0,4.9,0.7,6.5,2.2c1.6,1.4,2.4,3.4,2.5,6.1v0.1c0,2.6-0.9,4.7-2.5,6.1
			s-3.8,2.1-6.5,2.1H83.5 M74.5,195.6h12.4c3.9,0,7.2-0.7,10-2.1c2.8-1.4,4.9-3.3,6.3-5.8c1.5-2.4,2.2-5.2,2.2-8.4v-0.1
			c0-3.1-0.7-5.9-2.2-8.3c-1.4-2.4-3.5-4.3-6.2-5.6s-6-2.1-9.9-2.1H74.6L74.5,195.6L74.5,195.6z"/>
	</g>
	<g>
		<defs>
			<rect id="SVGID_9_" x="-197" y="-42.9" width="595.3" height="841.9"/>
		</defs>
		<clipPath id="SVGID_10_">
			<use xlink:href="#SVGID_9_"  style="overflow:visible;"/>
		</clipPath>
		<path class="st5" d="M117.6,178.7v-7.8h5.9c1.5,0,2.7,0.3,3.6,1c0.9,0.6,1.3,1.6,1.3,2.9v0.1c0,1.2-0.4,2.1-1.3,2.8
			c-0.8,0.7-2,1-3.6,1L117.6,178.7 M108.6,195.6h9v-9.8h3.9l6.5,9.8h10.4l-7.8-11.3c2-0.9,3.7-2.1,4.9-3.8s1.8-3.7,1.8-6.2v-0.1
			c0-3.2-1-5.7-2.9-7.6c-1.1-1.1-2.5-2-4.2-2.6s-3.9-0.9-6.3-0.9h-15.4L108.6,195.6L108.6,195.6z"/>
	</g>
	<g>
		<defs>
			<rect id="SVGID_11_" x="-197" y="-42.9" width="595.3" height="841.9"/>
		</defs>
		<clipPath id="SVGID_12_">
			<use xlink:href="#SVGID_11_"  style="overflow:visible;"/>
		</clipPath>
		<path class="st6" d="M186.7,196.2c4,0,7.2-1,9.5-2.8c2.4-1.8,3.5-4.4,3.6-7.8v-0.1c0-3-1.1-5.2-3.2-6.7s-5.1-2.6-8.9-3.4
			c-2.2-0.5-3.7-0.9-4.5-1.4c-0.8-0.4-1.2-1-1.1-1.8v-0.1c0-0.6,0.3-1.1,0.8-1.5s1.4-0.6,2.4-0.6c1.5,0,3,0.3,4.5,0.8
			c1.6,0.5,3.1,1.3,4.6,2.4l4.5-6.4c-1.8-1.4-3.7-2.5-5.9-3.2c-2.2-0.7-4.7-1.1-7.4-1.1c-3.9,0.1-7,1-9.2,2.9
			c-2.2,1.9-3.3,4.4-3.4,7.5v0.1c0,2.2,0.6,4,1.6,5.3s2.5,2.3,4.4,3.1c1.8,0.7,3.9,1.4,6.2,1.9c2.2,0.5,3.6,1,4.4,1.4
			c0.8,0.5,1.1,1,1.1,1.7v0.1c0,0.7-0.3,1.2-1,1.6s-1.5,0.6-2.8,0.6c-1.9,0-3.7-0.3-5.5-1c-1.8-0.7-3.5-1.6-5.1-2.9l-5,6
			c2,1.8,4.3,3.1,7,4C181.1,195.7,183.8,196.2,186.7,196.2"/>
	</g>
	<g>
		<defs>
			<rect id="SVGID_13_" x="-197" y="-42.9" width="595.3" height="841.9"/>
		</defs>
		<clipPath id="SVGID_14_">
			<use xlink:href="#SVGID_13_"  style="overflow:visible;"/>
		</clipPath>
		<path class="st7" d="M31.2,163H33v32.6h-8.9v-5.3h-8.7l-3.2,4.9H1.4L23.5,163L31.2,163L31.2,163z M24.1,183.3V177l-4.1,6.3H24.1z"
			/>
	</g>
	<g>
		<defs>
			<rect id="SVGID_15_" x="-197" y="-42.9" width="595.3" height="841.9"/>
		</defs>
		<clipPath id="SVGID_16_">
			<use xlink:href="#SVGID_15_"  style="overflow:visible;"/>
		</clipPath>
		<polygon class="st8" points="150.6,163.1 152.8,159.2 163.2,159.2 160.1,163.1 168.6,163.1 168.6,170.8 151.4,170.8 151.4,175.7 
			167,175.7 167,182.8 151.4,182.8 151.4,188 168.9,188 168.9,195.6 142.5,195.6 142.5,163.1 		"/>
	</g>
</g>
</svg>
