<?xml version="1.0" encoding="utf-8"?>
<!-- Generator: Adobe Illustrator 24.3.0, SVG Export Plug-In . SVG Version: 6.00 Build 0)  -->
<svg version="1.1" id="Capa_2_1_" xmlns="http://www.w3.org/2000/svg" xmlns:xlink="http://www.w3.org/1999/xlink" x="0px" y="0px"
	 viewBox="0 0 204 195.6" style="enable-background:new 0 0 204 195.6;" xml:space="preserve">
<style type="text/css">
	.st0{fill:#E30613;}
	.st1{fill:#FFFFFF;}
	.st2{fill-rule:evenodd;clip-rule:evenodd;fill:#FFFFFF;}
</style>
<polygon class="st0" points="126.6,53.5 66.5,142.6 37.7,142.6 103.8,45.6 126.9,45.6 "/>
<path class="st1" d="M104.1,142.5c-1.8-0.1-3.4-0.2-5.2-0.5c-39-5.5-66.4-41.6-60.9-80.7S79.6-4.8,118.6,0.7s66.2,41.5,60.7,80.6
	c-3.7,26.5-21.6,47.5-44.8,56.6v-27c12.9-8.5,21.5-23.1,21.5-39.6c0-26.2-21.2-47.3-47.3-47.3S61.3,45.1,61.3,71.3
	c0,24.6,18.8,44.8,42.8,47.1L104.1,142.5"/>
<rect x="104.1" y="45.6" class="st0" width="24.3" height="96.9"/>
<polygon class="st1" points="38.9,195.4 47.8,195.4 47.8,177.6 61.7,195.4 69.6,195.4 69.6,162.9 60.7,162.9 60.7,180.1 47.3,162.9 
	38.9,162.9 "/>
<path class="st2" d="M84,187.4v-16.5h3.7c2.7,0,4.9,0.7,6.5,2.2c1.6,1.4,2.4,3.4,2.5,6.1v0.1c0,2.6-0.9,4.7-2.5,6.1
	c-1.6,1.4-3.8,2.1-6.5,2.1L84,187.4 M75,195.4h12.3c3.9,0,7.2-0.7,10-2.2c2.8-1.4,4.9-3.3,6.3-5.8c1.5-2.4,2.2-5.2,2.2-8.4v-0.1
	c0-3.1-0.7-5.9-2.2-8.3c-1.4-2.4-3.5-4.3-6.2-5.6c-2.7-1.4-6-2.1-9.9-2.1H75V195.4z"/>
<path class="st2" d="M118,178.5v-7.8h5.9c1.5,0,2.7,0.3,3.6,1c0.9,0.6,1.3,1.6,1.3,2.9v0.1c0,1.2-0.4,2.1-1.3,2.8
	c-0.8,0.7-2,1-3.6,1H118 M109,195.4h9v-9.8h3.9l6.5,9.8h10.5l-7.8-11.3c2-0.9,3.7-2.1,4.9-3.8c1.2-1.7,1.8-3.7,1.8-6.2V174
	c0-3.2-1-5.7-2.9-7.6c-1.1-1.1-2.5-2-4.2-2.6c-1.7-0.6-3.9-0.9-6.3-0.9H109V195.4z"/>
<path class="st1" d="M187,196c4,0,7.2-1,9.5-2.8c2.4-1.8,3.6-4.4,3.6-7.8v-0.1c0-3-1.1-5.2-3.3-6.7c-2.1-1.5-5.1-2.6-8.9-3.4
	c-2.2-0.5-3.7-1-4.5-1.4c-0.8-0.4-1.2-1-1.1-1.8v-0.1c0-0.6,0.3-1.1,0.8-1.5s1.4-0.6,2.4-0.6c1.5,0,3,0.3,4.5,0.8
	c1.6,0.5,3.1,1.3,4.6,2.4l4.5-6.4c-1.8-1.4-3.7-2.5-5.9-3.2c-2.2-0.7-4.7-1.1-7.4-1.1c-3.9,0.1-7,1-9.2,2.9
	c-2.2,1.9-3.3,4.4-3.4,7.5v0.1c0,2.2,0.6,4,1.6,5.3c1.1,1.3,2.5,2.3,4.4,3.1c1.8,0.7,3.9,1.4,6.2,1.9c2.2,0.5,3.6,1,4.4,1.4
	c0.8,0.5,1.1,1,1.1,1.7v0.1c0,0.7-0.3,1.2-1,1.6c-0.6,0.4-1.6,0.6-2.8,0.6c-1.9,0-3.7-0.3-5.5-1c-1.8-0.7-3.5-1.6-5.1-2.9l-5,6
	c2,1.8,4.3,3.1,7,4C181.3,195.5,184.1,196,187,196"/>
<path class="st1" d="M31.7,162.9h1.8v32.5h-8.9v-5.3H16l-3.2,4.9H2l22.1-32.1H31.7z M24.7,183.1v-6.3l-4.1,6.3H24.7z"/>
<polygon class="st1" points="150.8,162.9 153,159 163.5,159 160.4,162.9 168.9,162.9 168.9,170.6 151.7,170.6 151.7,175.5 
	167.3,175.5 167.3,182.6 151.7,182.6 151.7,187.8 169.1,187.8 169.1,195.4 142.7,195.4 142.7,162.9 "/>
</svg>
